<svg id="Layer_1" data-name="Layer 1" xmlns="http://www.w3.org/2000/svg" width="60" height="60" viewBox="0 0 60 60"><path d="M50.1,9.2c-3.2-4.1-10-4.8-20.3-1.9C19.5,4.4,12.7,5.1,9.6,9.2c-4.9,6.3,1.1,17.6,1.8,19-4.5,12.8,3,22.7,5.4,25.5a5.2,5.2,0,0,0,3.7,1.9c1.4,0,3-.9,3.1-3.4a19.7,19.7,0,0,0-.1-2.1c-.3-3.6-.9-11.3,2.6-14.3a5.5,5.5,0,0,1,3.7-1.2,5.8,5.8,0,0,1,3.8,1.2c3.4,3,2.8,10.7,2.5,14.3,0,1-.1,1.7-.1,2.1a3.2,3.2,0,0,0,3.2,3.4,5.2,5.2,0,0,0,3.6-1.9c2.4-2.8,9.9-12.7,5.4-25.5C49,26.8,54.9,15.5,50.1,9.2Zm-7.8,44a4.3,4.3,0,0,1-3.1,1.7c-.6,0-2.4-.2-2.5-2.7,0-.4.1-1.1.1-2,.3-3.8,1-11.7-2.8-14.9a6.4,6.4,0,0,0-4.2-1.4,6.4,6.4,0,0,0-4.2,1.4c-3.7,3.2-3.1,11.1-2.8,14.9a17.2,17.2,0,0,1,.1,2c-.1,2.5-1.9,2.7-2.4,2.7a4.5,4.5,0,0,1-3.2-1.7C15,50.5,7.7,40.8,12.2,28.3a.4.4,0,0,0-.1-.3c-1.9-3.3-6-13.1-2-18.3s9.2-4.5,18.6-1.9h.1a16.9,16.9,0,0,1,2.7,1,14,14,0,0,0,4,1.1h1.3l3.7-.2c.2-.1.3-.2.3-.4s-.2-.4-.4-.3a29.9,29.9,0,0,1-4.8.1,15.3,15.3,0,0,1-3.9-1.1l-.8-.3c9.4-2.6,15.7-1.9,18.6,1.9s-.1,15-2,18.3c0,.1-.1.2,0,.3C52,40.8,44.7,50.5,42.3,53.2Z" fill="#007bc3"/></svg>