<svg id="Layer_1" data-name="Layer 1" xmlns="http://www.w3.org/2000/svg" width="60" height="60" viewBox="0 0 60 60"><path d="M41.1,52.1a24.4,24.4,0,0,1-11,2.6A25,25,0,0,1,5.2,29.8,27.7,27.7,0,0,1,9.9,15.2l1.5,6.3a.5.5,0,0,0,.4.2h.1c.2,0,.3-.2.2-.4l-1.6-6.5a.7.7,0,0,0-.5-.6H9.3L2.9,16.2a.8.8,0,0,0-.2.5.4.4,0,0,0,.5.2l6-2A28.7,28.7,0,0,0,4.5,29.8a25.6,25.6,0,0,0,36.9,23,.4.4,0,0,0-.3-.7Z" fill="#007bc3"/><path d="M57.3,43.3a.4.4,0,0,0-.5-.2l-6,2a28.7,28.7,0,0,0,4.7-14.9,25.6,25.6,0,0,0-36.9-23,.4.4,0,1,0,.3.7,24.4,24.4,0,0,1,11-2.6A25,25,0,0,1,54.8,30.2a27.7,27.7,0,0,1-4.7,14.6l-1.5-6.3a.4.4,0,0,0-.5-.2c-.2,0-.3.2-.3.4l1.7,6.5a.8.8,0,0,0,.4.6h.8L57,43.8A.5.5,0,0,0,57.3,43.3Z" fill="#007bc3"/><path d="M36.2,17.3c.2,0,.3-.1.3-.4V14.4a.3.3,0,0,0-.3-.3H24c-.2,0-.4.1-.4.3v2.5a.4.4,0,0,0,.4.4h1.3V43H24c-.2,0-.4.1-.4.3v2.6c0,.2.2.3.4.3H36.2a.3.3,0,0,0,.3-.3V43.3a.3.3,0,0,0-.3-.3H34.9V17.3ZM24.4,14.8H35.8v1.8H24.4ZM35.8,45.5H24.4V43.7H35.8ZM34.1,43H26V17.3h8.1Z" fill="#007bc3"/></svg>