<svg id="Layer_1" data-name="Layer 1" xmlns="http://www.w3.org/2000/svg" width="60" height="60" viewBox="0 0 60 60"><path d="M30.1,56.3a20.2,20.2,0,0,1-9.4-2.4A20.7,20.7,0,0,1,15,48.7c-2.9-3.7-3.2-9.3-3.2-9.5a22.2,22.2,0,0,1,.3-3.7.5.5,0,0,1,.5-.3.5.5,0,0,1,.3.5,13.4,13.4,0,0,0-.4,3.5c0,.2.4,5.5,3.1,9.1a18.9,18.9,0,0,0,5.5,4.9,18.6,18.6,0,0,0,9,2.4A18.2,18.2,0,0,0,39,53.2a17.7,17.7,0,0,0,5.5-4.9c2.8-3.6,3.1-9.1,3.1-9.2a17.8,17.8,0,0,0-.4-3.9c-.1-.2.1-.4.3-.4s.4.1.4.3a19,19,0,0,1,.5,4c0,.1-.3,5.8-3.3,9.6a18.2,18.2,0,0,1-5.7,5.2A20.1,20.1,0,0,1,30.1,56.3Zm16-25.1c-.1,0-.3,0-.3-.2l-1.6-3.2C42.9,25.4,32.1,8.3,30.1,5.1c-2,3.2-12.9,20.3-14.2,22.7s-1,2-1.4,3a.4.4,0,0,1-.5.1.3.3,0,0,1-.2-.4,21,21,0,0,1,1.5-3C16.7,24.8,29.2,5,29.8,4.2a.4.4,0,0,1,.6,0c.5.8,13.1,20.6,14.5,23.3.6,1.1,1.1,2.2,1.6,3.2s0,.4-.2.5Z" fill="#007bc3"/><path d="M39.3,28.8c-.1,0-.1,0-.1-.1s-.3-.2-.3-.4a2.2,2.2,0,0,0-.3-1.8c-.3-.4-1-.5-1.9-.4a4.1,4.1,0,0,1-3.1-.7,2.6,2.6,0,0,1-1-1.8c0-.2.1-.4.3-.4a.4.4,0,0,1,.4.4,2.1,2.1,0,0,0,.7,1.2,3.1,3.1,0,0,0,2.6.5,2.9,2.9,0,0,1,2.6.7,2.8,2.8,0,0,1,.4,2.5A.5.5,0,0,1,39.3,28.8Z" fill="#007bc3"/><path d="M22.8,27.8a.4.4,0,0,1-.4-.4V23.6a.4.4,0,1,1,.8,0v3.8A.4.4,0,0,1,22.8,27.8Z" fill="#007bc3"/><path d="M24.5,26.9h-.2L21,25c-.2-.1-.2-.3-.1-.5a.4.4,0,0,1,.5-.2l3.3,1.9a.6.6,0,0,1,.1.6Z" fill="#007bc3"/><path d="M21.1,26.9h-.3a.4.4,0,0,1,.1-.6l3.3-1.9a.4.4,0,0,1,.5.2.4.4,0,0,1-.1.5l-3.3,1.9Z" fill="#007bc3"/><path d="M30.4,14.2a.7.7,0,0,1-.7.7.8.8,0,0,1-.8-.7.8.8,0,0,1,.8-.8A.7.7,0,0,1,30.4,14.2Z" fill="#007bc3"/><path d="M29.7,15.3a1.1,1.1,0,0,1-1.1-1.1,1.1,1.1,0,1,1,2.2,0A1.1,1.1,0,0,1,29.7,15.3Zm0-1.5a.4.4,0,0,0-.4.4c0,.2.2.3.4.3s.4-.1.4-.3A.4.4,0,0,0,29.7,13.8Z" fill="#007bc3"/><path d="M34.4,19.6a.7.7,0,0,1-.7.7.7.7,0,0,1-.8-.7.8.8,0,0,1,.8-.8A.8.8,0,0,1,34.4,19.6Z" fill="#007bc3"/><path d="M24.8,29.9a.5.5,0,0,1-.5.5.5.5,0,1,1,0-1A.5.5,0,0,1,24.8,29.9Z" fill="#007bc3"/><path d="M27.5,20.3a.8.8,0,0,1-.8.8.7.7,0,0,1-.7-.8.7.7,0,0,1,.7-.7A.8.8,0,0,1,27.5,20.3Z" fill="#007bc3"/><path d="M31.6,28.4a1.2,1.2,0,0,1-1.2,1.2,1.2,1.2,0,0,1-1.1-1.2,1.1,1.1,0,0,1,1.1-1.2A1.2,1.2,0,0,1,31.6,28.4Z" fill="#007bc3"/><path d="M54.8,33.4H3.5a.4.4,0,0,1,0-.8H54.8a.4.4,0,1,1,0,.8Z" fill="#007bc3"/><path d="M19.2,45.2a.5.5,0,0,1-.4-.2,14.3,14.3,0,0,1-.8-2.2,14.8,14.8,0,0,1-.6-3,.4.4,0,0,1,.4-.4.4.4,0,0,1,.4.4,9.9,9.9,0,0,0,.5,2.8,9.3,9.3,0,0,0,.8,2,.4.4,0,0,1-.2.5Z" fill="#007bc3"/><path d="M29.7,51.3h0a13.7,13.7,0,0,1-6.3-1.6,14.6,14.6,0,0,1-2.5-2,.5.5,0,0,1,0-.5.4.4,0,0,1,.6,0A7.6,7.6,0,0,0,23.8,49a12,12,0,0,0,5.9,1.5.4.4,0,0,1,0,.8Z" fill="#007bc3"/></svg>