<svg id="Layer_1" data-name="Layer 1" xmlns="http://www.w3.org/2000/svg" width="60" height="60" viewBox="0 0 60 60"><path d="M50.5,38.6a4.3,4.3,0,0,0-4.1-4.4V24a.4.4,0,0,0-.1-.3L32.7,14.5V12.1a.4.4,0,0,0-.4-.4H30.4V4.3a.4.4,0,0,0-.4-.4H23.2a.4.4,0,0,0-.4.4v7.4H20.9c-.2,0-.3.2-.3.4V30.8a.3.3,0,0,0,.3.3H22v4.2a.4.4,0,0,0,.4.4h3.4a.4.4,0,0,0,.4-.4V31.1h.9v4.2a.4.4,0,0,0,.4.4h3.4a.4.4,0,0,0,.4-.4V31.1h1c.2,0,.4-.1.4-.3V23.6L38,26.7V38.2H19.8a.4.4,0,0,0-.4.4v4.5a.4.4,0,0,0,.4.4H38v2.3H15.4A5.4,5.4,0,0,0,10,51.2v4.3a.4.4,0,0,0,.4.4H46.1c.2,0,.3-.2.3-.4V43A4.5,4.5,0,0,0,50.5,38.6ZM38,42.8H20.2V38.9H38Zm7.7-.6a3.6,3.6,0,0,1-3.3-3.6,3.7,3.7,0,0,1,3.3-3.7ZM23.6,4.7h6.1v7H23.6ZM25.5,35H22.8V31.1h2.7Zm5.1,0H27.9V31.1h2.7Zm.3-4.6H21.3V12.5H31.9V30.4ZM38,55.2H10.7v-4a4.7,4.7,0,0,1,4.7-4.7H38Zm.8,0V26.5a.5.5,0,0,0-.2-.4l-5.9-3.4V15.4l13,8.8v10a4.3,4.3,0,0,0-4.1,4.4A4.5,4.5,0,0,0,45.7,43V55.2Zm7.6-13V34.9a3.8,3.8,0,0,1,3.4,3.7A3.7,3.7,0,0,1,46.4,42.2Z" fill="#007bc3"/></svg>