<?xml version="1.0" encoding="UTF-8"?>
<svg width="57px" height="38px" viewBox="0 0 57 38" version="1.1" xmlns="http://www.w3.org/2000/svg" xmlns:xlink="http://www.w3.org/1999/xlink">
    <title>8DD59575-1FC4-4D3F-8DB0-9CB8A155B017</title>
    <defs>
        <polygon id="path-1" points="0 0 56.8727273 0 56.8727273 34.0890052 0 34.0890052"></polygon>
    </defs>
    <g id="Drop-4" stroke="none" stroke-width="1" fill="none" fill-rule="evenodd">
        <g id="Mini-Cart-(Guest)-" transform="translate(-1262.000000, -751.000000)">
            <g id="Mini-Cart-/-1" transform="translate(1210.000000, 91.000000)">
                <g id="Log-in-or-Create-Account-Message-/-Mini-Cart-/-1" transform="translate(15.000000, 648.693717)">
                    <g id="Group" transform="translate(37.000000, 10.026178)">
                        <g id="wfl-logo-copy" transform="translate(0.000000, 2.005236)">
                            <mask id="mask-2" fill="white">
                                <use xlink:href="#path-1"></use>
                            </mask>
                            <g id="Clip-2"></g>
                            <path d="M19.0819206,11.0053988 C18.9408189,11.0053988 18.8031587,10.9345887 18.7249873,10.8068092 C16.2468573,6.70624796 12.8409957,1.73866436 12.2135354,0.840623913 L8.30533682,6.41621068 C8.17726364,6.59774659 7.9213631,6.64927856 7.7299908,6.52075757 C7.5409538,6.39520244 7.49437056,6.14223852 7.62342703,5.9579839 L11.5993495,0.285388501 C11.8738096,-0.0967143027 12.5584235,-0.0915240318 12.825386,0.282669787 C13.2188238,0.837287311 16.8385505,6.0920659 19.4392227,10.3957891 C19.5552506,10.588447 19.4893703,10.8356028 19.2928358,10.9502831 C19.2269555,10.9869857 19.1539464,11.0053988 19.0819206,11.0053988 M35.4546387,11.0053988 C35.3130454,11.0053988 35.175508,10.9345887 35.0991804,10.8068092 C32.6129382,6.69574384 29.2143283,1.7379229 28.5858848,0.840623913 L24.6776862,6.41621068 C24.5512108,6.59774659 24.2919917,6.64927856 24.1023402,6.52075757 C23.9133032,6.39520244 23.866597,6.14223852 23.9957764,5.9579839 L27.9713302,0.285388501 C28.246159,-0.0967143027 28.9307728,-0.0915240318 29.1977353,0.282669787 C29.5895754,0.833703552 33.2013128,6.08094389 35.8105888,10.3957891 C35.9276,10.588447 35.8617197,10.8356028 35.6650622,10.9486766 C35.5989362,10.9869857 35.5262958,11.0053988 35.4546387,11.0053988 M44.6615272,34.0890052 C41.5705633,34.0890052 38.7765522,32.9798938 36.6225383,31.2111236 C34.469139,32.9798938 31.6751279,34.0890052 28.5849015,34.0890052 C25.4244929,34.0890052 22.5689035,32.9370122 20.3981737,31.0980498 C18.2285501,32.9370122 15.3718545,34.0890052 12.2135354,34.0890052 C5.47949181,34.0890052 0,28.9899348 0,22.7214468 C0,21.348373 0.567602638,19.3806424 1.68535456,16.8733708 C2.60915305,14.8082609 3.91446704,12.3619132 5.54328258,9.62157372 L4.14295845,8.96549876 L6.93684662,7.64951792 L7.63866798,10.6009284 L6.29144136,9.97092838 C4.66115089,12.7090435 3.36210536,15.1438984 2.44555862,17.1975156 C1.3718088,19.6006111 0.827313416,21.4595931 0.827313416,22.7214468 C0.827313416,28.5432007 5.9351226,33.2804352 12.2135354,33.2804352 C15.1267701,33.2804352 17.7597679,32.2296525 19.7752612,30.5545543 C17.6788925,28.5124298 16.3721035,25.7622041 16.3721035,22.7214468 C16.3721035,21.348373 16.939952,19.3806424 18.0586872,16.8733708 C18.9753569,14.8197536 20.2795647,12.3726645 21.9146487,9.6205851 L20.5145703,8.96549876 L23.3082127,7.64951792 L24.0100341,10.6009284 L22.6628074,9.97031049 C21.0267402,12.7204126 19.7283092,15.1569977 18.8185225,17.1975156 C17.7437894,19.6006111 17.1997857,21.4595931 17.1997857,22.7214468 C17.1997857,25.5590421 18.4276658,28.1279791 20.3981737,30.0272475 C22.3697878,28.1279791 23.5966846,25.5590421 23.5966846,22.7214468 C23.5966846,20.4520627 22.4045716,17.9648107 21.1151131,15.6141123 C21.0064599,15.4178706 21.0820501,15.1717034 21.2848531,15.0667858 C21.4876561,14.9642162 21.7347071,15.0376214 21.8445894,15.2323802 C23.1843185,17.675762 24.4243668,20.2750991 24.4243668,22.7214468 C24.4243668,25.7622041 23.1174549,28.5124298 21.0221925,30.5545543 C23.0380545,32.2296525 25.6715439,33.2804352 28.5849015,33.2804352 C31.4160317,33.2804352 33.9766349,32.2815552 35.9706188,30.6896249 C33.7973079,28.6360077 32.4481147,25.8244874 32.4481147,22.7214468 C32.4481147,21.348373 33.0155944,19.3806424 34.1343296,16.8733708 C35.055547,14.8118447 36.3640566,12.357588 38.0062695,9.59611668 L36.6059453,8.94090676 L39.3995877,7.6239373 L40.1017778,10.5767071 L38.7541824,9.9457185 C37.1120925,12.7047182 35.8096055,15.1471114 34.8945337,17.1975156 C33.8198006,19.6006111 33.2756739,21.4595931 33.2756739,22.7214468 C33.2756739,25.6361547 34.5565286,28.2777555 36.6225383,30.1901231 C38.6883022,28.2777555 39.969034,25.6361547 39.969034,22.7214468 C39.969034,20.456635 38.7765522,17.9674058 37.4873396,15.6141123 C37.3788092,15.4172527 37.4541536,15.1717034 37.6572025,15.0667858 C37.8564411,14.9642162 38.1093917,15.0376214 38.2179221,15.2323802 C39.5566678,17.6783572 40.7967161,20.2786829 40.7967161,22.7214468 C40.7967161,25.8244874 39.447523,28.6360077 37.2748266,30.6896249 C39.2688105,32.2815552 41.8297824,33.2804352 44.6615272,33.2804352 C50.9392025,33.2804352 56.0450451,28.5432007 56.0450451,22.7214468 C56.0450451,21.4280807 55.474001,19.5085455 54.34531,17.0143732 C53.3544021,14.8213602 51.941664,12.2052164 50.1481478,9.23947092 C47.5888966,5.01150092 45.1078167,1.47185972 44.6615272,0.841241803 L40.7533286,6.41658141 C40.6242721,6.59811732 40.367757,6.64989645 40.1779826,6.52013968 C39.9889456,6.39495529 39.9423623,6.14248568 40.0714188,5.95773675 L44.0473413,0.284770611 C44.3211868,-0.0970850363 45.0064152,-0.0918947654 45.2733777,0.282175476 C45.3868245,0.441714518 48.0794341,4.2317245 50.8594333,8.82882162 C52.6705258,11.8224958 54.0980132,14.4664445 55.1029329,16.6875097 C56.2771009,19.2842517 56.8727273,21.315007 56.8727273,22.7214468 C56.8727273,28.9899348 51.3939729,34.0890052 44.6615272,34.0890052" id="Fill-1" fill="#00B3BE" mask="url(#mask-2)"></path>
                        </g>
                    </g>
                </g>
            </g>
        </g>
    </g>
</svg>